<svg width="114" height="86" viewBox="0 0 114 86" fill="none" xmlns="http://www.w3.org/2000/svg">
<g clip-path="url(#clip0_783_12129)">
<path d="M0 62.6632C0 62.0709 0 61.4741 0 60.8817C0.107294 60.0845 0.281647 59.2918 0.304 58.4901C0.822588 40.1723 6.67459 23.5913 16.6932 8.36873C17.1581 7.6606 17.8108 6.84558 18.5529 6.58727C24.3826 4.57868 30.1944 2.4721 36.1313 0.833156C41.0847 -0.534115 41.2188 -0.293618 43.2753 4.32482C43.8431 5.60302 44.5092 5.79007 45.8146 5.74553C52.2031 5.5273 58.6049 5.23336 64.9889 5.41596C69.8708 5.55403 69.9021 5.87469 72.1866 1.52347C72.8259 0.307625 73.4428 -0.311433 74.9315 0.156201C81.7313 2.29841 88.5623 4.34263 95.3532 6.4982C96.0551 6.72088 96.7346 7.38002 97.1638 8.01244C104.192 18.3939 109.288 29.6349 111.792 41.9359C112.766 46.7191 113.276 51.5914 114 56.4236V67.1168C113.852 68.2837 113.776 69.4639 113.526 70.6085C113.379 71.2676 113.106 72.0827 112.605 72.4479C104.446 78.4247 95.5499 82.9808 85.8621 85.938C85.3569 86.0939 84.3868 85.9513 84.1544 85.604C82.2052 82.6824 80.3812 79.6851 78.5393 76.7412C81.9459 75.0844 84.9904 73.6014 88.1466 72.0648C86.9216 70.4749 85.9649 69.7979 84.1544 70.5773C66.12 78.3311 48.0365 78.2688 29.9887 70.6219C28.1602 69.8469 27.1365 70.4036 25.9518 72.0782C29.1706 73.6459 32.2151 75.1334 35.5412 76.7501C33.7172 79.6761 31.9871 82.5977 30.0647 85.3857C29.7518 85.84 28.4911 86.0137 27.8249 85.8088C18.5082 82.9318 9.92024 78.5761 2.06541 72.8264C1.30541 72.2697 0.701882 71.1118 0.567765 70.1587C0.219059 67.6825 0.169882 65.1661 0 62.6632H0ZM86.2645 47.2936C86.2511 38.6669 78.2085 33.2602 71.2388 37.1972C65.5969 40.386 63.9384 48.9192 67.8904 54.4106C71.6322 59.6035 77.7927 60.5076 82.4198 56.437C85.1424 54.0409 86.3271 50.9056 86.2645 47.2981V47.2936ZM48.4344 47.4005C48.4612 41.8691 45.3139 37.4689 40.3873 36.1551C36.1536 35.0238 31.6473 37.2328 29.2511 41.6152C26.6984 46.2827 27.7981 52.9765 31.7009 56.3524C34.7141 58.9578 38.1565 59.8396 41.8536 58.1516C46.3913 56.0852 48.3226 52.255 48.4344 47.4005Z" fill="url(#paint0_linear_783_12129)"/>
</g>
<defs>
<linearGradient id="paint0_linear_783_12129" x1="57" y1="0" x2="57" y2="86.0008" gradientUnits="userSpaceOnUse">
<stop stop-color="#7E5BD6"/>
<stop offset="1" stop-color="#7E5BD6"/>
</linearGradient>
<clipPath id="clip0_783_12129">
<rect width="114" height="86" fill="white"/>
</clipPath>
</defs>
</svg>
