<svg width="112" height="91" viewBox="0 0 112 91" fill="none" xmlns="http://www.w3.org/2000/svg">
<path d="M75.1719 0C76.6348 0 78.1021 0 79.5651 0C79.6661 0.0437479 79.7584 0.118119 79.8638 0.131244C85.3245 0.774338 90.0121 3.00111 93.9264 6.86405C94.1592 7.09153 94.7216 7.13091 95.0906 7.05216C99.5936 6.11596 103.859 4.53228 107.87 2.28364C108.134 2.1349 108.424 2.03428 108.872 1.83304C107.088 7.14841 103.855 11.0857 99.4179 14.1612C103.728 13.7543 107.791 12.5163 112 10.8276C108.951 15.303 105.494 18.9778 101.368 22.0227C100.74 22.4864 100.507 22.9633 100.547 23.7507C100.78 28.3224 100.371 32.8634 99.4926 37.3388C96.9621 50.262 91.33 61.6627 82.2317 71.2697C71.9561 82.1192 59.2949 88.3883 44.4679 90.3525C42.6227 90.5975 40.7732 90.7856 38.9237 91H31.8946C30.5898 90.86 29.285 90.7113 27.9758 90.5844C19.2334 89.7226 11.0445 87.0889 3.34322 82.911C2.20538 82.2942 1.11148 81.5942 0 80.9336C12.3712 81.8611 23.4948 78.8556 33.5772 71.3003C23.0203 70.3379 16.0264 65.0575 12.1164 55.2798C15.631 55.6998 18.8775 55.7917 22.2735 54.838C8.48325 51.3863 3.55409 38.9838 4.29215 32.1503C7.38495 33.6859 10.5876 34.7402 14.2691 34.8015C2.22295 26.0081 2.72378 11.6544 7.49039 4.32667C19.9363 18.8903 35.6639 26.9487 54.8534 28.2174C54.7172 26.59 54.5502 25.1419 54.4887 23.6939C54.067 13.9906 60.1911 4.82539 69.3773 1.52243C71.2488 0.848709 73.2389 0.498726 75.1719 0Z" fill="#7E5BD6"/>
</svg>
